<svg id="SVGDoc" width="16" height="15" xmlns="http://www.w3.org/2000/svg" version="1.1" xmlns:xlink="http://www.w3.org/1999/xlink" xmlns:avocode="https://avocode.com/" viewBox="0 0 16 15"><defs><path d="M189.20374,540h3.42917v-10.12112h-3.42917zM190.94116,525c-1.17355,0 -1.94116,0.75522 -1.94116,1.74835c0,0.97149 0.7454,1.74963 1.89563,1.74963h0.02292c1.19629,0 1.94027,-0.77799 1.94027,-1.74963c-0.02254,-0.99313 -0.74398,-1.74835 -1.91766,-1.74835zM201.05105,529.64111c-1.82172,0 -2.6356,0.98375 -3.09133,1.6724v0.0327h-0.02254c0.00654,-0.0104 0.01558,-0.02197 0.02254,-0.0327v-1.43463h-3.43014c0.04621,0.95018 0,10.12112 0,10.12112h3.43048v-5.65227c0,-0.30285 0.02328,-0.60398 0.11375,-0.82033c0.24808,-0.60518 0.81198,-1.23079 1.75956,-1.23079c1.2413,0 1.73731,0.92831 1.73731,2.28856v5.41483h3.42932v-5.80351c0,-3.10882 -1.69197,-4.55542 -3.94895,-4.55538z" id="Path-0"/></defs><desc>Generated with Avocode.</desc><g transform="matrix(1,0,0,1,-189,-525)"><g><title>LinkedIn Copy</title><use xlink:href="#Path-0" fill="#ffffff" fill-opacity="1"/></g></g></svg>