<?xml version="1.0" encoding="UTF-8"?>
<svg width="32px" height="21px" viewBox="0 0 32 21" version="1.1" xmlns="http://www.w3.org/2000/svg" xmlns:xlink="http://www.w3.org/1999/xlink">
    <!-- Generator: Sketch 51.1 (57501) - http://www.bohemiancoding.com/sketch -->
    <title>Icons/20x20/Social Network/White/Google Plus</title>
    <desc>Created with Sketch.</desc>
    <defs></defs>
    <g id="Page-1" stroke="none" stroke-width="1" fill="none" fill-rule="evenodd">
        <g id="06---Connexion" transform="translate(-221.000000, -170.000000)" fill="#FFFFFF">
            <g id="Group-10" transform="translate(-2.000000, 124.000000)">
                <g id="Group-7" transform="translate(42.000000, 26.000000)">
                    <g id="Buttons/Color/Small---Google-Plus" transform="translate(166.000000, 1.000000)">
                        <g id="Icons/20x20/Social-Network/White/Google-Plus" transform="translate(15.000000, 13.000000)">
                            <path d="M10.1818182,15.1272727 L10.1818182,18.6181818 L15.9563636,18.6181818 C15.7236364,20.1163636 14.2109091,23.0109091 10.1818182,23.0109091 C6.70545455,23.0109091 3.86909091,20.1309091 3.86909091,16.5818182 C3.86909091,13.0327273 6.70545455,10.1527273 10.1818182,10.1527273 C12.16,10.1527273 13.4836364,10.9963636 14.24,11.7236364 L17.0036364,9.06181818 C15.2290909,7.40363636 12.9309091,6.4 10.1818182,6.4 C4.55272727,6.4 0,10.9527273 0,16.5818182 C0,22.2109091 4.55272727,26.7636364 10.1818182,26.7636364 C16.0581818,26.7636364 19.9563636,22.6327273 19.9563636,16.8145455 C19.9563636,16.1454545 19.8836364,15.6363636 19.7963636,15.1272727 L10.1818182,15.1272727 L10.1818182,15.1272727 Z" id="Shape"></path>
                            <polyline id="Shape" points="32 15.1272727 29.0909091 15.1272727 29.0909091 12.2181818 26.1818182 12.2181818 26.1818182 15.1272727 23.2727273 15.1272727 23.2727273 18.0363636 26.1818182 18.0363636 26.1818182 20.9454545 29.0909091 20.9454545 29.0909091 18.0363636 32 18.0363636"></polyline>
                        </g>
                    </g>
                </g>
            </g>
        </g>
    </g>
</svg>