<svg xmlns="http://www.w3.org/2000/svg" xmlns:xlink="http://www.w3.org/1999/xlink" width="17" height="14" viewBox="0 0 17 14"><defs><path id="qanwa" d="M499.98 6671.67a.08.08 0 0 0-.1-.03c-.5.23-1.04.4-1.6.5a3.57 3.57 0 0 0 1.25-1.77.09.09 0 0 0-.03-.1.08.08 0 0 0-.1 0c-.65.4-1.36.67-2.11.82a3.53 3.53 0 0 0-6.02 3.2 9.72 9.72 0 0 1-6.95-3.62.08.08 0 0 0-.14.01 3.6 3.6 0 0 0 .86 4.6 3.36 3.36 0 0 1-1.24-.4.08.08 0 0 0-.08 0 .09.09 0 0 0-.04.07v.04a3.58 3.58 0 0 0 2.48 3.42c-.38.06-.78.06-1.17-.02a.08.08 0 0 0-.1.11 3.54 3.54 0 0 0 3.07 2.47 6.75 6.75 0 0 1-4.87 1.3.09.09 0 0 0-.05.15 9.8 9.8 0 0 0 5.34 1.58c6.2 0 9.9-5.1 9.9-10.02v-.4a7.1 7.1 0 0 0 1.7-1.81.09.09 0 0 0 0-.1z"/></defs><g><g transform="translate(-483 -6670)"><use fill="#fff" xlink:href="#qanwa"/></g></g></svg>